<svg width="431" height="231" viewBox="0 0 431 231" fill="none" xmlns="http://www.w3.org/2000/svg">
<path d="M429.398 224.331C431.843 225.912 430.728 231 427.815 231H22.9565C12.3745 231 2.31379 224.741 0.776757 214.271C-1.00316 202.925 0.288991 191.308 4.51825 180.632C8.74751 169.957 15.7588 160.616 24.8198 153.584C33.2496 147.244 43.0396 142.963 53.4108 141.082C63.7819 139.201 74.4479 139.773 84.5599 142.751C75.4794 130.313 69.7329 115.749 67.8694 100.451C65.296 75.1 78.8983 46.8015 104.632 39.432C119.338 35.2683 134.815 38.953 147.829 45.954C160.463 53.4413 171.995 62.6556 182.092 73.3313C186.089 56.9196 193.176 41.4241 202.974 27.6778C211.58 15.7986 223.755 6.99244 237.715 2.54811C244.398 0.309535 251.481 -0.467273 258.489 0.270041C265.496 1.00735 272.265 3.24166 278.338 6.82237C290.154 15.0886 298.414 27.5272 301.462 41.6429C305.727 58.5925 303.925 76.2791 301.866 93.2288C320.983 84.4592 343.004 79.4848 363.261 87.4806C371.403 90.5546 378.575 95.7584 384.032 102.551C389.261 109.626 392.647 117.896 393.884 126.612C396.936 145.036 393.885 163.901 398.333 181.883C402.784 199.544 413.927 214.771 429.398 224.331Z" fill="#B6D7FF"/>
</svg>
