<svg width="111" height="24" viewBox="0 0 111 24" fill="none" xmlns="http://www.w3.org/2000/svg">
<path fill-rule="evenodd" clip-rule="evenodd" d="M1 9C5.41828 9 9 5.41828 9 1C9 0.967755 8.99981 0.935554 8.99943 0.903399C8.99374 0.42233 9.36296 0 9.84406 0H14.2193C14.6393 0 14.9902 0.324813 14.9977 0.744718C14.9992 0.82963 15 0.914726 15 1C15 8.73199 8.73199 15 1 15C0.914726 15 0.82963 14.9992 0.744718 14.9977C0.324813 14.9902 0 14.6393 0 14.2193V9.84406C0 9.36296 0.42233 8.99374 0.903399 8.99943C0.935554 8.99981 0.967755 9 1 9ZM9 23.2V16.9314C9 16.7192 9.08429 16.5157 9.23431 16.3657L16.3657 9.23431C16.5157 9.08429 16.7192 9 16.9314 9H23.2C23.6418 9 24 9.35817 24 9.8V14.2C24 14.6418 23.6418 15 23.2 15H15.8C15.3582 15 15 15.3582 15 15.8V23.2C15 23.6418 14.6418 24 14.2 24H9.8C9.35817 24 9 23.6418 9 23.2Z" fill="#FF5C00"/>
<path d="M42.8514 6V17.8143H40.2418V14.6751H37.8278L35.8054 17.8143H33.0163L35.3976 14.2532C34.6256 13.9269 34.033 13.4374 33.6198 12.7848C33.2066 12.121 33 11.3277 33 10.4051C33 9.49367 33.2012 8.71167 33.6035 8.05907C34.0058 7.39522 34.5767 6.88889 35.3161 6.54008C36.0555 6.18003 36.9253 6 37.9257 6H42.8514ZM37.9909 8.22785C37.2407 8.22785 36.6644 8.40788 36.2621 8.76793C35.8706 9.12799 35.6749 9.66245 35.6749 10.3713C35.6749 11.0577 35.8652 11.5865 36.2457 11.9578C36.6263 12.3291 37.1863 12.5148 37.9257 12.5148H40.2418V8.22785H37.9909Z" fill="#FF5C00"/>
<path d="M51.9586 13.0717C52.9916 13.4318 53.5081 14.1519 53.5081 15.2321C53.5081 16.0534 53.2091 16.6892 52.611 17.1392C52.013 17.5893 51.1214 17.8143 49.9362 17.8143H45.2551V8.73418H49.7404C50.8387 8.73418 51.6977 8.94233 52.3175 9.35865C52.9373 9.76371 53.2471 10.3376 53.2471 11.0802C53.2471 11.5302 53.133 11.9297 52.9046 12.2785C52.6872 12.616 52.3718 12.8805 51.9586 13.0717ZM47.5875 12.4641H49.5121C50.4037 12.4641 50.8495 12.1378 50.8495 11.4852C50.8495 10.8439 50.4037 10.5232 49.5121 10.5232H47.5875V12.4641ZM49.7241 16.0253C50.6593 16.0253 51.1268 15.6934 51.1268 15.0295C51.1268 14.6807 51.0181 14.4276 50.8006 14.27C50.5831 14.1013 50.2406 14.0169 49.7731 14.0169H47.5875V16.0253H49.7241Z" fill="#FF5C00"/>
<path d="M65.742 6V17.8143H63.116V8.22785H57.962V17.8143H55.336V6H65.742Z" fill="#FF5C00"/>
<path d="M76.5316 8.73418V17.8143H73.9872V10.8945H71.2144L71.1329 12.4979C71.0894 13.6906 70.9806 14.6807 70.8067 15.4684C70.6327 16.256 70.35 16.8748 69.9585 17.3249C69.5671 17.775 69.0234 18 68.3275 18C67.9578 18 67.5174 17.9325 67.0064 17.7975L67.1369 15.6371C67.3108 15.6596 67.4359 15.6709 67.512 15.6709C67.8926 15.6709 68.1753 15.5302 68.3601 15.2489C68.5559 14.9564 68.6863 14.5907 68.7516 14.1519C68.8168 13.7018 68.8658 13.1111 68.8984 12.3797L69.0289 8.73418H76.5316Z" fill="#FF5C00"/>
<path d="M87.0193 8.59916C87.911 8.59916 88.7102 8.80169 89.4169 9.20675C90.1237 9.60056 90.6783 10.1519 91.0806 10.8608C91.4829 11.5696 91.6841 12.3741 91.6841 13.2743C91.6841 14.1744 91.4829 14.9789 91.0806 15.6878C90.6783 16.3966 90.1237 16.9536 89.4169 17.3586C88.7102 17.7525 87.911 17.9494 87.0193 17.9494C86.2473 17.9494 85.5405 17.8031 84.899 17.5105C84.2575 17.2068 83.7247 16.7848 83.3006 16.2447C82.8765 15.6934 82.5938 15.0633 82.4525 14.3544H81.2455V17.8143H78.7174V8.73418H81.2455V12.076H82.4688C82.7189 11.0183 83.2517 10.1744 84.0672 9.5443C84.8827 8.91421 85.8667 8.59916 87.0193 8.59916ZM87.0193 15.789C87.6391 15.789 88.1502 15.564 88.5525 15.1139C88.9657 14.6526 89.1723 14.0394 89.1723 13.2743C89.1723 12.4979 88.9657 11.8847 88.5525 11.4346C88.1502 10.9845 87.6391 10.7595 87.0193 10.7595C86.3887 10.7595 85.8667 10.9845 85.4535 11.4346C85.0512 11.8847 84.8501 12.4979 84.8501 13.2743C84.8501 14.0394 85.0512 14.6526 85.4535 15.1139C85.8667 15.564 86.3887 15.789 87.0193 15.789Z" fill="#FF5C00"/>
<path d="M97.3653 17.9494C96.4301 17.9494 95.5874 17.7525 94.8372 17.3586C94.0978 16.9536 93.516 16.3966 93.092 15.6878C92.6788 14.9789 92.4722 14.1744 92.4722 13.2743C92.4722 12.3741 92.6788 11.5696 93.092 10.8608C93.516 10.1519 94.0978 9.60056 94.8372 9.20675C95.5874 8.80169 96.4301 8.59916 97.3653 8.59916C98.2895 8.59916 99.0941 8.80169 99.7792 9.20675C100.475 9.60056 100.981 10.1688 101.296 10.9114L99.3225 12.0084C98.8658 11.1758 98.208 10.7595 97.3489 10.7595C96.6857 10.7595 96.1366 10.9845 95.7016 11.4346C95.2667 11.8847 95.0492 12.4979 95.0492 13.2743C95.0492 14.0506 95.2667 14.6639 95.7016 15.1139C96.1366 15.564 96.6857 15.789 97.3489 15.789C98.2188 15.789 98.8767 15.3727 99.3225 14.5401L101.296 15.654C100.981 16.3741 100.475 16.9367 99.7792 17.3418C99.0941 17.7468 98.2895 17.9494 97.3653 17.9494Z" fill="#FF5C00"/>
<path d="M111 13.308C111 13.3418 110.984 13.5781 110.951 14.0169H104.313C104.432 14.5795 104.715 15.0239 105.161 15.3502C105.607 15.6765 106.161 15.8397 106.825 15.8397C107.281 15.8397 107.684 15.7722 108.032 15.6371C108.39 15.4909 108.722 15.2658 109.026 14.962L110.38 16.481C109.554 17.4599 108.347 17.9494 106.759 17.9494C105.77 17.9494 104.895 17.7525 104.133 17.3586C103.372 16.9536 102.785 16.3966 102.372 15.6878C101.959 14.9789 101.752 14.1744 101.752 13.2743C101.752 12.3854 101.953 11.5865 102.356 10.8776C102.769 10.1575 103.329 9.60056 104.036 9.20675C104.753 8.80169 105.552 8.59916 106.433 8.59916C107.292 8.59916 108.07 8.79044 108.765 9.173C109.461 9.55556 110.005 10.1069 110.397 10.827C110.799 11.5359 111 12.3629 111 13.308ZM106.449 10.5907C105.873 10.5907 105.389 10.7595 104.998 11.097C104.606 11.4346 104.367 11.8959 104.28 12.481H108.602C108.515 11.9072 108.276 11.4515 107.885 11.1139C107.493 10.7651 107.015 10.5907 106.449 10.5907Z" fill="#FF5C00"/>
</svg>
